<svg xmlns="http://www.w3.org/2000/svg" viewBox="0 0 364.2 71" width="364" height="71" role="img" aria-labelledby="t"><title id="t">Inovexia Software</title><defs/><path d="M0 0L9 0L9 40L0 40ZM26 0L35 0L35 40L26 40ZM53.8 0L62.8 0L62.8 40L53.8 40ZM26 0L37.25 0L62.8 40L51.55 40ZM138.4 0L149.65 0L164.03 40L152.78 40ZM167.15 0L178.4 0L164.03 40L152.78 40ZM195.4 0L204.4 0L204.4 40L195.4 40ZM195.4 0L225 0L225 7.92L195.4 7.92ZM195.4 16.04L222.04 16.04L222.04 23.96L195.4 23.96ZM195.4 32.08L225 32.08L225 40L195.4 40ZM298.2 0L307.2 0L307.2 40L298.2 40ZM338.57 0L349.82 0L335.45 40L324.2 40ZM338.57 0L349.82 0L364.2 40L352.95 40ZM335.4 24L353 24L353 31.2L335.4 31.2Z" fill="#ffffff"/><path d="M79.8 20A20.8 20 0 1 0 121.4 20A20.8 20 0 1 0 79.8 20ZM89.25 20A11.35 11 0 1 0 111.95 20A11.35 11 0 1 0 89.25 20Z" fill="#ffffff" fill-rule="evenodd"/><path d="M242 0L253.25 0L281.2 40L269.95 40ZM269.95 0L281.2 0L253.25 40L242 40Z" fill="#8b7dff"/><path d="M0 47H364.2" stroke="#e9ecf7" stroke-width="1.8"/><path d="M10.08 58.05C8.93 55.69 2.16 55.43 1.9 59.23C1.63 62.76 10.17 61.84 10.08 65.64C9.99 69.57 2.7 69.57 1.63 66.69M49.41 62.5A6.55 6.55 0 1 0 62.51 62.5A6.55 6.55 0 1 0 49.41 62.5ZM109.58 55.95H101.58V69.05M101.58 62.5H108.38M148.64 55.95H158.74M153.69 55.95V69.05M197.81 55.95L202.12 69.05L206.61 57.75L211.09 69.05L215.41 55.95M254.47 69.05L260.65 55.95L266.82 69.05M256.29 65.2H265.01M305.89 69.05V55.95H310.71A3.44 3.27 0 0 1 310.71 62.5H305.89M310.11 62.5L315.09 69.05M362.75 55.95H354.15V69.05H362.75M354.15 62.5H361.55" fill="none" stroke="#e9ecf7" stroke-width="1.9" stroke-linecap="round" stroke-linejoin="round"/></svg>
